# Blender 3.6.2
# www.blender.org
mtllib katana .mtl
o Cube
v 0.182879 0.648076 -5.928875
v 0.182879 0.245012 -5.928875
v 0.011825 0.103174 6.921064
v 0.011665 -0.241699 6.508471
v -0.183020 0.648076 -5.928875
v -0.183020 0.245012 -5.928875
v -0.011967 0.103174 6.921064
v -0.011806 -0.241699 6.508471
v -0.011806 -0.115396 -2.639532
v 0.057822 0.286491 -2.608752
v -0.057963 0.286491 -2.608752
v 0.011665 -0.115396 -2.639532
v -0.057239 0.299155 -2.774099
v 0.057097 -0.102733 -2.804879
v -0.057239 -0.102733 -2.804879
v 0.057097 0.299155 -2.774099
v -0.011806 -0.382000 2.082574
v 0.011665 -0.382000 2.082574
v 0.011665 -0.295295 -0.249054
v -0.011806 -0.295295 -0.249054
v -0.011806 -0.336176 4.570881
v 0.011665 -0.336176 4.570881
v -0.183020 0.306159 -2.833526
v 0.182879 -0.095630 -2.861610
v -0.183020 -0.095630 -2.861610
v 0.182879 0.306159 -2.833526
v -0.374010 -0.429870 -2.788275
v -0.375374 -0.443642 -2.729987
v 0.374603 0.599626 -2.677386
v 0.376097 0.591246 -2.589971
v 0.375722 -0.443642 -2.700307
v -0.375290 0.591246 -2.619292
v -0.374256 0.599626 -2.677386
v 0.375622 -0.429870 -2.786436
v 0.057822 -0.005241 1.323078
v 0.057822 -0.029012 2.889804
v 0.022068 -0.304850 2.087276
v -0.057963 -0.029012 2.889804
v -0.057963 -0.005241 1.323078
v -0.022209 -0.304850 2.087276
v -0.057963 0.028688 0.554386
v -0.057963 0.134212 -0.984247
v -0.023814 -0.202050 -0.243049
v 0.057822 0.134212 -0.984247
v 0.057822 0.028688 0.554386
v 0.023673 -0.202050 -0.243049
v 0.057822 -0.016884 3.783414
v 0.042571 0.030058 5.349413
v 0.020724 -0.271412 4.570666
v -0.042712 0.030058 5.349413
v -0.057963 -0.016884 3.783414
v -0.020866 -0.271412 4.570666
vn -0.9977 -0.0665 0.0124
vn -0.0000 -0.7673 0.6413
vn -1.0000 -0.0000 -0.0000
vn -0.0000 -0.9988 0.0487
vn -0.0000 0.9989 -0.0465
vn -0.0000 -0.0000 -1.0000
vn 0.0577 -0.0994 0.9934
vn -0.1791 0.0969 -0.9790
vn 0.9929 -0.1189 -0.0099
vn -0.1425 -0.1015 0.9846
vn -0.0000 0.9931 0.1171
vn -0.0000 -0.9923 -0.1242
vn 0.4214 -0.0662 0.9045
vn -0.0000 0.3064 -0.9519
vn -0.9915 -0.1303 -0.0051
vn -0.0000 0.9999 -0.0136
vn -0.0000 -0.9993 -0.0372
vn 0.9915 -0.1303 -0.0051
vn -0.9929 -0.1189 -0.0099
vn -0.0000 -0.9972 -0.0750
vn 0.9977 -0.0665 0.0124
vn -0.0000 0.9956 0.0933
vn -0.9907 -0.1361 0.0023
vn -0.0000 -0.9998 0.0184
vn 0.9907 -0.1361 0.0023
vn 1.0000 -0.0000 -0.0000
vn -0.0000 -0.9939 -0.1104
vn -0.0000 0.9940 0.1098
vn -0.4214 -0.0662 0.9045
vn 1.0000 0.0013 -0.0090
vn 0.0039 -0.9823 -0.1873
vn -0.0022 0.9934 0.1144
vn -0.9998 0.0021 -0.0202
vn 0.0021 -0.0535 -0.9986
vn -0.0338 -0.0135 0.9993
vn -0.0373 -0.2244 0.9738
vn 0.1812 0.0957 -0.9788
vn 0.9924 -0.1232 -0.0019
vn -0.9924 -0.1232 -0.0019
vn -0.9929 -0.1188 -0.0081
vn 0.9929 -0.1188 -0.0081
vn 0.9944 -0.1052 0.0128
vn -0.9944 -0.1052 0.0128
vn -0.0000 0.9999 0.0152
vn -0.0000 0.9977 0.0684
vn -0.0000 0.9996 -0.0300
vn -0.0000 0.9990 0.0441
vt 0.375000 0.000000
vt 0.625000 0.000000
vt 0.625000 0.031132
vt 0.424069 0.046575
vt 0.375000 0.046575
vt 0.375000 0.750000
vt 0.625000 0.750000
vt 0.625000 1.000000
vt 0.375000 1.000000
vt 0.375000 0.219636
vt 0.625000 0.219636
vt 0.625000 0.250000
vt 0.375000 0.250000
vt 0.125000 0.703425
vt 0.375000 0.703425
vt 0.125000 0.750000
vt 0.625000 0.718868
vt 0.875000 0.718868
vt 0.875000 0.750000
vt 0.625000 0.500000
vt 0.375000 0.500000
vt 0.625000 0.563701
vt 0.375000 0.563701
vt 0.625000 0.189272
vt 0.375000 0.189272
vt 0.625000 0.595454
vt 0.440038 0.610275
vt 0.375000 0.610275
vt 0.375000 0.186299
vt 0.625000 0.186299
vt 0.625000 0.530364
vt 0.875000 0.530364
vt 0.875000 0.560728
vt 0.625000 0.560728
vt 0.125000 0.530364
vt 0.375000 0.530364
vt 0.375000 0.560728
vt 0.125000 0.560728
vt 0.375000 0.093150
vt 0.431344 0.093150
vt 0.625000 0.108752
vt 0.625000 0.124122
vt 0.440038 0.139725
vt 0.375000 0.139725
vt 0.625000 0.671700
vt 0.875000 0.671700
vt 0.875000 0.688575
vt 0.625000 0.688575
vt 0.125000 0.610275
vt 0.375000 0.656850
vt 0.125000 0.656850
vt 0.625000 0.625878
vt 0.625000 0.641248
vt 0.431344 0.656850
vt 0.440038 0.139725
vt 0.625000 0.154546
vt 0.125000 0.563701
vt 0.424069 0.703425
vt 0.875000 0.563701
vt 0.875000 0.595454
vt 0.424069 0.046575
vt 0.625000 0.061425
vt 0.625000 0.078300
vt 0.431344 0.093150
vt 0.625000 0.671700
vt 0.125000 0.500000
vt 0.875000 0.500000
vt 0.625000 0.641248
vt 0.625000 0.672227
vt 0.625000 0.078300
vt 0.625000 0.093150
vt 0.625000 0.139725
vt 0.625000 0.624950
vt 0.657930 0.718206
vt 0.625000 0.046575
vt 0.875000 0.641248
vt 0.875000 0.625878
s 0
usemtl Material
f 8/1/1 7/2/1 50/3/1 52/4/1 21/5/1
f 4/6/2 3/7/2 7/8/2 8/9/2
f 25/10/3 23/11/3 5/12/3 6/13/3
f 21/14/4 22/15/4 4/6/4 8/16/4
f 48/17/5 50/18/5 7/19/5 3/7/5
f 6/13/6 5/12/6 1/20/6 2/21/6
f 10/22/7 12/23/7 31/23/7 30/22/7
f 13/24/8 15/25/8 27/25/8 33/24/8
f 12/23/9 10/22/9 44/26/9 46/27/9 19/28/9
f 9/29/10 11/30/10 32/30/10 28/29/10
f 26/31/11 23/32/11 13/33/11 16/34/11
f 25/35/12 24/36/12 14/37/12 15/38/12
f 24/36/13 26/31/13 16/34/13 14/37/13
f 16/34/14 13/33/14 33/33/14 29/34/14
f 17/39/15 40/40/15 39/41/15 41/42/15 43/43/15 20/44/15
f 36/45/16 38/46/16 51/47/16 47/48/16
f 20/49/17 19/28/17 18/50/17 17/51/17
f 19/28/18 46/27/18 45/52/18 35/53/18 37/54/18 18/50/18
f 20/44/19 43/55/19 42/56/19 11/30/19 9/29/19
f 9/57/20 12/23/20 19/28/20 20/49/20
f 22/15/21 49/58/21 48/17/21 3/7/21 4/6/21
f 10/22/22 11/59/22 42/60/22 44/26/22
f 21/5/23 52/61/23 51/62/23 38/63/23 40/64/23 17/39/23
f 17/51/24 18/50/24 22/15/24 21/14/24
f 18/50/25 37/54/25 36/65/25 47/48/25 49/58/25 22/15/25
f 2/21/26 1/20/26 26/31/26 24/36/26
f 6/66/27 2/21/27 24/36/27 25/35/27
f 1/20/28 5/67/28 23/32/28 26/31/28
f 15/25/29 13/24/29 23/11/29 25/10/29
f 34/37/30 29/34/30 30/22/30 31/23/30
f 27/38/31 34/37/31 31/23/31 28/57/31
f 29/34/32 33/33/32 32/59/32 30/22/32
f 28/29/33 32/30/33 33/24/33 27/25/33
f 15/38/34 14/37/34 34/37/34 27/38/34
f 11/59/35 10/22/35 30/22/35 32/59/35
f 12/23/36 9/57/36 28/57/36 31/23/36
f 14/37/37 16/34/37 29/34/37 34/37/37
f 35/68/38 36/69/38 37/54/38
f 38/70/39 39/71/39 40/64/39
f 41/42/40 42/72/40 43/43/40
f 44/26/41 45/73/41 46/27/41
f 47/48/42 48/74/42 49/58/42
f 50/75/43 51/62/43 52/61/43
f 38/46/44 36/45/44 35/68/44 39/76/44
f 41/77/45 45/52/45 44/26/45 42/60/45
f 50/18/46 48/17/46 47/48/46 51/47/46
f 45/52/47 41/77/47 39/76/47 35/68/47
